<svg xmlns="http://www.w3.org/2000/svg" xmlns:xlink="http://www.w3.org/1999/xlink" width="500" zoomAndPan="magnify" viewBox="0 0 375 374.999991" height="500" preserveAspectRatio="xMidYMid meet" version="1.0"><defs><clipPath id="2e01748c50"><path d="M 28.625 69.222656 L 346.625 69.222656 L 346.625 306.050781 L 28.625 306.050781 Z M 28.625 69.222656 " clip-rule="nonzero"/></clipPath></defs><g clip-path="url(#2e01748c50)"><path fill="#ffffff" d="M 250.097656 113.441406 C 252.078125 113.167969 254.160156 113.648438 255.878906 114.949219 L 343.53125 181.371094 C 344.101562 181.800781 344.609375 182.3125 345.039062 182.882812 C 347.644531 186.320312 346.96875 191.214844 343.53125 193.820312 L 255.878906 260.246094 C 254.523438 261.273438 252.871094 261.828125 251.167969 261.828125 C 246.859375 261.828125 243.363281 258.332031 243.363281 254.019531 L 243.363281 222.265625 L 118.210938 222.265625 C 113.8125 222.265625 110.246094 218.320312 110.246094 213.453125 C 110.246094 213.441406 110.246094 213.433594 110.246094 213.425781 L 110.246094 161.660156 C 110.246094 156.789062 113.8125 152.84375 118.210938 152.84375 L 243.363281 152.84375 L 243.363281 121.171875 C 243.363281 119.472656 243.921875 117.820312 244.945312 116.464844 C 246.246094 114.746094 248.121094 113.714844 250.097656 113.441406 Z M 47.839844 69.222656 L 209.246094 69.222656 C 219.855469 69.234375 228.449219 77.820312 228.449219 88.414062 L 228.449219 132.34375 L 202.855469 132.34375 L 202.855469 103.929688 C 202.855469 98.835938 198.726562 94.703125 193.636719 94.703125 L 63.410156 94.703125 C 58.320312 94.703125 54.191406 98.835938 54.191406 103.929688 L 54.191406 271.265625 C 54.191406 276.359375 58.320312 280.492188 63.410156 280.492188 L 193.636719 280.492188 C 198.726562 280.492188 202.855469 276.359375 202.855469 271.265625 L 202.855469 242.855469 L 228.449219 242.855469 L 228.449219 286.863281 C 228.449219 297.460938 219.84375 306.050781 209.230469 306.050781 L 47.839844 306.050781 C 37.226562 306.050781 28.625 297.460938 28.625 286.863281 L 28.625 88.414062 C 28.625 77.816406 37.226562 69.222656 47.839844 69.222656 Z M 47.839844 69.222656 " fill-opacity="1" fill-rule="evenodd"/></g></svg>